<svg width="120" height="120" viewBox="0 0 120 120" fill="none" xmlns="http://www.w3.org/2000/svg">
<g clip-path="url(#clip0_257_2)">
<path d="M26.1987 64.9038V106C26.1987 108.45 28.1784 110.428 30.6269 110.428C33.0713 110.428 35.0551 108.45 35.0551 106V64.9038C35.0551 62.4586 33.0713 60.4756 30.6269 60.4756C28.1784 60.4756 26.1987 62.4565 26.1987 64.9038Z" fill="black"/>
<path d="M12.2996 110.478H22.0499V61.686C22.0766 61.4522 22.1192 61.2188 22.1192 60.9791C22.1192 39.9292 39.1096 22.8061 59.9908 22.8061C80.8695 22.8061 97.8599 39.9292 97.8599 60.9791C97.8599 61.301 97.9071 61.613 97.9551 61.924V110.478H107.707C114.494 110.478 120 104.782 120 97.755V72.3108C120 66.5159 116.247 61.6338 111.123 60.0976C110.651 32.1334 87.9032 9.52148 59.9929 9.52148C32.075 9.52148 9.32363 32.1355 8.8568 60.1085C3.73964 61.6468 0 66.5247 0 72.3149V97.755C0 104.778 5.50632 110.478 12.2996 110.478Z" fill="white"/>
<path d="M84.9536 64.9038V106C84.9536 108.45 86.9362 110.428 89.3814 110.428C91.8266 110.428 93.8092 108.45 93.8092 106V64.9038C93.8092 62.4586 91.8266 60.4756 89.3814 60.4756C86.9316 60.4756 84.9536 62.4565 84.9536 64.9038Z" fill="black"/>
</g>
<defs>
<clipPath id="clip0_257_2">
<rect width="120" height="120" fill="white"/>
</clipPath>
</defs>
</svg>
